<?xml version="1.0" encoding="UTF-8"?>
<svg version="1.1" xmlns="http://www.w3.org/2000/svg" width="2000" height="2000">
<path d="M0 0 C524.04 0 1048.08 0 1588 0 C1588 245.19 1588 490.38 1588 743 C1403.53 743 1219.06 743 1029 743 C1029 533.45 1029 323.9 1029 108 C725.07 108 421.14 108 108 108 C108 317.55 108 527.1 108 743 C72.36 743 36.72 743 0 743 C0 497.81 0 252.62 0 0 Z " fill="#231F20" transform="translate(206,770)"/>
<path d="M0 0 C16.17 0 32.34 0 49 0 C49.99 5.94 50.98 11.88 52 18 C57.60868732 35.98079171 68.30272537 49.29932211 84.83984375 58.49609375 C94.41600505 63.05335222 104.25543326 65.15624805 114.81511497 65.13422108 C115.97315686 65.13774942 115.97315686 65.13774942 117.15459353 65.14134905 C119.7448714 65.14801277 122.33509881 65.14758162 124.92538452 65.14717102 C126.80006951 65.15047129 128.67475379 65.1541972 130.54943717 65.1583125 C135.70410998 65.16832221 140.85877114 65.17204764 146.01345229 65.17470181 C151.57199202 65.17860794 157.13052255 65.18818611 162.6890564 65.19691467 C176.11500286 65.21667092 189.54095007 65.22674449 202.96690744 65.23564246 C209.2916862 65.24002697 215.61646412 65.24539338 221.94124222 65.25063133 C242.97044131 65.2676432 263.99964006 65.28216157 285.02884483 65.28938007 C286.38843575 65.28985483 287.74802667 65.29033071 289.10761759 65.29080774 C290.11894221 65.2911623 290.11894221 65.2911623 291.15069763 65.29152403 C294.56644816 65.29272519 297.98219869 65.29394065 301.39794922 65.29516602 C302.07580802 65.29540617 302.75366683 65.29564632 303.45206681 65.29589374 C325.41698303 65.30378209 347.38184518 65.32720451 369.3467378 65.35972196 C392.5843517 65.39406057 415.82193528 65.41373387 439.05957854 65.41702431 C451.72054336 65.4191878 464.3814287 65.42791287 477.04236984 65.45348549 C487.82643367 65.47521703 498.61039871 65.48323081 509.39448194 65.47351871 C514.89315657 65.4689811 520.3916275 65.47082903 525.89027405 65.49028015 C530.93277339 65.50796299 535.97492119 65.50687259 541.01742454 65.49138286 C542.83313453 65.48901455 544.6488692 65.49328959 546.4645416 65.50521151 C566.77254895 65.63020246 584.65820908 61.80677688 599.79296875 47.234375 C600.52128906 46.49703125 601.24960938 45.7596875 602 45 C602.95326172 44.07960938 602.95326172 44.07960938 603.92578125 43.140625 C615.3058302 31.33161633 618.68143557 15.82277316 620 0 C636.5 0 653 0 670 0 C670 43.89 670 87.78 670 133 C575.62 133 481.24 133 384 133 C384 182.5 384 232 384 283 C387.3 283.33 390.6 283.66 394 284 C395.975803 284.3917855 397.94325705 284.83282478 399.890625 285.34765625 C401.43182007 285.75407349 401.43182007 285.75407349 403.00415039 286.16870117 C404.07528076 286.46365479 405.14641113 286.7586084 406.25 287.0625 C407.38751709 287.37485596 408.52503418 287.68721191 409.69702148 288.0090332 C451.51132026 299.74735186 490.46592337 320.60199305 522.19140625 350.37890625 C524.81436811 352.82676078 527.49001001 355.19752033 530.1875 357.5625 C535.9490618 362.74329637 541.64392934 368.28817316 545.8125 374.85546875 C547.70583536 377.74851783 549.25694852 379.88279036 552 382 C555.84410764 382.5849729 559.30745445 382.43367731 563.18359375 382.17578125 C573.84230236 381.6848479 583.3440546 385.99016436 591.22265625 392.96875 C599.12280962 401.11993628 602.62346312 410.64085023 603.06640625 421.90234375 C602.83883791 432.51773736 599.09830339 442.44658519 591.86328125 450.3359375 C581.04935013 459.99366215 570.07769774 461.89618174 556.13085938 461.18652344 C546.84867823 460.37401354 539.43022817 455.50690891 533 449 C525.73755896 440.21942157 522.48806403 430.26061555 523.0625 418.875 C524.02632088 410.87846411 526.7411009 403.80207028 531 397 C530.14277344 396.0821875 529.28554688 395.164375 528.40234375 394.21875 C527.24715362 392.97939239 526.09222294 391.73979291 524.9375 390.5 C524.33768311 389.85651611 523.73786621 389.21303223 523.11987305 388.55004883 C520.11488681 385.31594819 517.15887602 382.06327446 514.3125 378.6875 C510.2590808 374.02261611 505.6994578 370.00183248 501 366 C500.21955322 365.33508545 500.21955322 365.33508545 499.42333984 364.65673828 C455.29745608 327.40323724 403.82610163 309.68261016 347 304 C347.33 330.4 347.66 356.8 348 384 C351.3 385.65 354.6 387.3 358 389 C363.45461466 392.77627169 366.7390351 397.32079147 370 403 C370.41765625 403.71671875 370.8353125 404.4334375 371.265625 405.171875 C375.60065879 414.02511302 375.46379482 425.11891285 373.1171875 434.546875 C370.60942685 441.09030346 367.04283988 446.17103056 362 451 C361.2575 451.72123047 361.2575 451.72123047 360.5 452.45703125 C350.72352547 461.25054502 339.85448396 461.80264459 327.32470703 461.21337891 C317.36926735 460.29959459 309.39591871 454.35189233 303 447 C295.67823961 436.45788027 293.42251566 425.17059911 295.625 412.5625 C298.11951471 402.70655026 303.83796385 394.04287179 312.33984375 388.46484375 C318.29474234 385 318.29474234 385 322 385 C322 358.27 322 331.54 322 304 C297.74910506 306.79818019 274.99223296 310.33759829 252 318 C251.32630371 318.22236328 250.65260742 318.44472656 249.95849609 318.67382812 C219.53791437 328.8979514 192.01227049 345.90384575 168 367 C167.12601563 367.76183594 166.25203125 368.52367187 165.3515625 369.30859375 C155.72160428 377.82973975 146.77139945 386.73462709 139 397 C139.42152344 397.88042969 139.84304688 398.76085938 140.27734375 399.66796875 C141.09912109 401.41013672 141.09912109 401.41013672 141.9375 403.1875 C142.48277344 404.33605469 143.02804687 405.48460937 143.58984375 406.66796875 C147.83838493 416.7067655 147.07753699 428.25957919 143.2578125 438.31640625 C138.50324764 448.46046233 130.04876995 456.12920817 119.60546875 460.11328125 C109.14584584 462.68569122 97.398525 462.5137645 87.6484375 457.6796875 C77.68084202 451.35805615 70.590335 443.29981571 67.50390625 431.8359375 C65.51963836 420.6686624 66.67551388 410.07596764 72.625 400.375 C79.58992604 390.63444749 88.52239696 384.47272712 100.234375 382.19140625 C103.47632644 381.9670339 106.24485861 382.54623918 109.4375 383.125 C113.90260787 383.59307373 115.41005689 383.45140163 119.02734375 380.68359375 C121.94853372 377.65860515 124.46918269 374.35384733 127 371 C128.08953634 369.6959688 129.19172989 368.40228664 130.3125 367.125 C130.85003906 366.50753906 131.38757813 365.89007812 131.94140625 365.25390625 C140.31368977 356.08728843 149.17710257 347.60029125 159 340 C160.24143182 339.00719327 161.48227657 338.01365217 162.72265625 337.01953125 C195.11119976 311.34440507 243.48214306 283 286 283 C286 233.5 286 184 286 133 C191.62 133 97.24 133 0 133 C0 89.11 0 45.22 0 0 Z " fill="#231F20" transform="translate(444,1052)"/>
<path d="M0 0 C0.9550142 -0.00445784 1.91002839 -0.00891569 2.89398241 -0.01350862 C3.94026544 -0.01332426 4.98654847 -0.01313989 6.06453705 -0.01294994 C7.73530343 -0.01846498 7.73530343 -0.01846498 9.43982267 -0.02409142 C13.18594791 -0.03513688 16.93204542 -0.0389736 20.67818451 -0.04278088 C23.35877904 -0.04904494 26.03937061 -0.05567893 28.71996307 -0.0626936 C36.77477929 -0.08244624 44.82959674 -0.09252355 52.88443112 -0.10142139 C56.6803834 -0.10580701 60.47633428 -0.11117318 64.27228546 -0.11641026 C76.89633393 -0.13342276 89.52038153 -0.14791538 102.1444397 -0.155159 C105.41968538 -0.15706881 108.69493105 -0.15898915 111.9701767 -0.16094494 C113.19120477 -0.16167055 113.19120477 -0.16167055 114.43690008 -0.16241082 C127.61382998 -0.1707053 140.79066894 -0.19603227 153.96755916 -0.22852562 C167.50529412 -0.2616357 181.04298292 -0.2796114 194.58075857 -0.28280324 C202.17789188 -0.28496488 209.77489263 -0.29366259 217.37198639 -0.31926441 C223.84427768 -0.34102561 230.31640421 -0.34899539 236.78872794 -0.33929763 C240.08752346 -0.33476823 243.38591026 -0.33876386 246.68467331 -0.35605907 C250.27137629 -0.37380701 253.85722718 -0.36665638 257.44393158 -0.35352612 C258.47236884 -0.36449536 259.50080609 -0.37546461 260.56040812 -0.38676625 C274.44432605 -0.26468477 286.42453704 5.32380287 296.44966888 14.75922108 C308.12389287 26.984116 311.53186781 39.92989818 312.32808685 56.37323475 C312.40484201 57.77885617 312.48261804 59.18442215 312.5613308 60.5899353 C312.76799469 64.33927331 312.95919519 68.08924119 313.14645672 71.83959246 C313.29875026 74.85964761 313.45903815 77.87925474 313.61938322 80.89889139 C314.12905453 90.50784787 314.60779849 100.11825167 315.0803895 109.72909284 C315.25359466 113.24644436 315.42811781 116.76373006 315.60260952 120.28101796 C316.01395745 128.57322077 316.42320592 136.86552524 316.83101654 145.15790272 C317.24961065 153.66883231 317.67175625 162.17958068 318.09559262 170.69025069 C318.46278429 178.06585662 318.82786242 185.4415651 319.19124591 192.81735963 C319.40689345 197.19414591 319.62329709 201.57089119 319.84173203 205.94753933 C320.04610554 210.04437256 320.24781892 214.14132853 320.4475441 218.23839092 C320.52078104 219.73190985 320.59492309 221.22538474 320.67008209 222.71880817 C320.77322556 224.7712924 320.8729559 226.82391733 320.9719162 228.87660694 C321.02831331 230.01954873 321.08471043 231.16249052 321.14281654 232.34006691 C321.29787099 237.26917395 321.26216888 242.20267588 321.26216888 247.13422108 C196.52216888 247.13422108 71.78216888 247.13422108 -56.73783112 247.13422108 C-56.73783112 233.83245204 -56.62333733 220.67930911 -55.95926666 207.41718006 C-55.87506544 205.6601954 -55.79127745 203.90319089 -55.70786285 202.14616871 C-55.48336188 197.4481549 -55.2523148 192.75048719 -55.01926398 188.05289054 C-54.87341587 185.10741311 -54.72898145 182.16186966 -54.58500862 179.21630001 C-54.08125164 168.91221712 -53.57187471 158.60842907 -53.05741119 148.30487537 C-52.57999016 138.73999219 -52.11549521 129.17453857 -51.65681046 119.60874027 C-51.26021739 111.3504425 -50.85434619 103.09263366 -50.4413932 94.8351379 C-50.19588245 89.92246955 -49.95407555 85.00969009 -49.72178459 80.09637737 C-49.50340326 75.48354748 -49.27341503 70.87143648 -49.03476715 66.25961208 C-48.94960188 64.57649381 -48.8684581 62.89316602 -48.79182625 61.20963764 C-47.8863571 41.43976302 -43.88939034 24.9633809 -28.73783112 11.13422108 C-20.65036024 5.09373429 -10.24725362 0.02223392 0 0 Z " fill="#231F20" transform="translate(646.7378311157227,486.86577892303467)"/>
<path d="M0 0 C130.68 0 261.36 0 396 0 C396.99 18.15 397.98 36.3 399 55 C399.33644531 61.08566406 399.67289063 67.17132812 400.01953125 73.44140625 C400.42773438 81.18945313 400.42773438 81.18945313 400.61791992 84.86938477 C400.75152182 87.40513874 400.89048052 89.94061444 401.03393555 92.47583008 C401.25033647 96.31795824 401.44920914 100.160656 401.64453125 104.00390625 C401.74433037 105.67097374 401.74433037 105.67097374 401.84614563 107.37171936 C402.60995758 123.43551822 399.84855352 138.64711372 389 151 C386.5625 153.625 386.5625 153.625 384 156 C383.51144531 156.48210937 383.02289062 156.96421875 382.51953125 157.4609375 C370.10393421 169.08028485 353.55921145 170.1554064 337.4262085 170.13371277 C336.18220756 170.13597833 334.93820662 170.13824388 333.65650868 170.14057809 C330.22444336 170.1457929 326.79243066 170.14656648 323.36036515 170.14538372 C319.6506248 170.14517886 315.94089213 170.15070657 312.2311554 170.15544128 C304.97088446 170.16372994 297.71062165 170.16649532 290.45034638 170.16705366 C284.54582759 170.16752966 278.64131147 170.16958862 272.73679352 170.17275429 C255.97787295 170.18155595 239.21895878 170.18617442 222.46003589 170.18542381 C221.55750627 170.18538386 220.65497666 170.1853439 219.72509766 170.18530273 C218.8214597 170.18526185 217.91782174 170.18522097 216.98680082 170.18517885 C202.3462286 170.18477251 187.70568211 170.19434041 173.06511733 170.2084411 C158.01413263 170.22282213 142.96316048 170.22971034 127.91216874 170.22884732 C119.46948805 170.22851595 111.02683434 170.23123672 102.58415985 170.24202538 C95.39546553 170.25115311 88.20681043 170.25328701 81.01811281 170.24651595 C77.35473026 170.24326221 73.69142285 170.24315237 70.02804756 170.2518692 C66.0458842 170.26124662 62.06389306 170.25492836 58.08172607 170.24723816 C56.93899286 170.25238172 55.79625965 170.25752529 54.61889815 170.26282471 C36.35596151 170.18525737 22.44117599 166.41749182 8.7734375 153.97265625 C-3.87649621 140.85872883 -6.26328407 126.11159521 -6.05314255 108.68997574 C-5.87938817 99.89485613 -5.38648877 91.10883037 -4.94140625 82.32421875 C-4.83142115 80.09749202 -4.72172091 77.8707512 -4.61228943 75.64399719 C-4.38393649 71.01748224 -4.15248946 66.39113597 -3.91870117 61.76489258 C-3.61940994 55.83831122 -3.32754734 49.91139113 -3.03788853 43.98433208 C-2.81331952 39.40403896 -2.58512007 34.82393237 -2.35578728 30.2438755 C-2.24667995 28.05705862 -2.13864449 25.87018798 -2.03170967 23.68326378 C-1.88230068 20.63980109 -1.72806227 17.59662084 -1.57250977 14.5534668 C-1.52935135 13.65529739 -1.48619293 12.75712799 -1.44172668 11.83174133 C-1.39828125 11.00105133 -1.35483582 10.17036133 -1.31007385 9.3144989 C-1.27412393 8.59767787 -1.238174 7.88085684 -1.20113468 7.14231396 C-0.97546569 4.73868164 -0.47346411 2.36732054 0 0 Z " fill="#231F20" transform="translate(581,911)"/>
</svg>
